<svg width="48" height="48" viewBox="0 0 48 48" fill="none" xmlns="http://www.w3.org/2000/svg">
<rect width="48" height="48" fill="#333333"/>
<rect width="1440" height="1024" transform="translate(-631 -573)" fill="white"/>
<rect x="-631" y="-573" width="1440" height="1024" fill="#FAF9FA"/>
<rect x="-302" y="-573" width="1111" height="1024" fill="white"/>
<rect x="-56" y="-493" width="620" height="696" rx="16" fill="#FF8500" fill-opacity="0.03"/>
<rect x="-55.5" y="-492.5" width="619" height="695" rx="15.5" stroke="#FF8500" stroke-opacity="0.25"/>
<g filter="url(#filter0_dd_0_1)">
<rect x="-16" y="-17" width="540" height="82" rx="12" fill="white"/>
<rect x="-15.5" y="-16.5" width="539" height="81" rx="11.5" stroke="#E2E0E4"/>
</g>
<circle cx="24" cy="24" r="24" fill="#590BA9" fill-opacity="0.05"/>
<path d="M20 14V17" stroke="#590BA9" stroke-width="1.5" stroke-miterlimit="10" stroke-linecap="round" stroke-linejoin="round"/>
<path d="M28 14V17" stroke="#590BA9" stroke-width="1.5" stroke-miterlimit="10" stroke-linecap="round" stroke-linejoin="round"/>
<path d="M15.5 21.0898H32.5" stroke="#590BA9" stroke-width="1.5" stroke-miterlimit="10" stroke-linecap="round" stroke-linejoin="round"/>
<path d="M33 20.5V29C33 32 31.5 34 28 34H20C16.5 34 15 32 15 29V20.5C15 17.5 16.5 15.5 20 15.5H28C31.5 15.5 33 17.5 33 20.5Z" stroke="#590BA9" stroke-width="1.5" stroke-miterlimit="10" stroke-linecap="round" stroke-linejoin="round"/>
<path d="M27.6947 25.7002H27.7037" stroke="#590BA9" stroke-width="2" stroke-linecap="round" stroke-linejoin="round"/>
<path d="M27.6947 28.7002H27.7037" stroke="#590BA9" stroke-width="2" stroke-linecap="round" stroke-linejoin="round"/>
<path d="M23.9955 25.7002H24.0045" stroke="#590BA9" stroke-width="2" stroke-linecap="round" stroke-linejoin="round"/>
<path d="M23.9955 28.7002H24.0045" stroke="#590BA9" stroke-width="2" stroke-linecap="round" stroke-linejoin="round"/>
<path d="M20.2943 25.7002H20.3033" stroke="#590BA9" stroke-width="2" stroke-linecap="round" stroke-linejoin="round"/>
<path d="M20.2943 28.7002H20.3033" stroke="#590BA9" stroke-width="2" stroke-linecap="round" stroke-linejoin="round"/>
<defs>
<filter id="filter0_dd_0_1" x="-18" y="-17" width="544" height="88" filterUnits="userSpaceOnUse" color-interpolation-filters="sRGB">
<feFlood flood-opacity="0" result="BackgroundImageFix"/>
<feColorMatrix in="SourceAlpha" type="matrix" values="0 0 0 0 0 0 0 0 0 0 0 0 0 0 0 0 0 0 127 0" result="hardAlpha"/>
<feMorphology radius="2" operator="erode" in="SourceAlpha" result="effect1_dropShadow_0_1"/>
<feOffset dy="4"/>
<feGaussianBlur stdDeviation="2"/>
<feColorMatrix type="matrix" values="0 0 0 0 0.266667 0 0 0 0 0.235294 0 0 0 0 0.301961 0 0 0 0.08 0"/>
<feBlend mode="normal" in2="BackgroundImageFix" result="effect1_dropShadow_0_1"/>
<feColorMatrix in="SourceAlpha" type="matrix" values="0 0 0 0 0 0 0 0 0 0 0 0 0 0 0 0 0 0 127 0" result="hardAlpha"/>
<feMorphology radius="2" operator="erode" in="SourceAlpha" result="effect2_dropShadow_0_1"/>
<feOffset dy="2"/>
<feGaussianBlur stdDeviation="2"/>
<feColorMatrix type="matrix" values="0 0 0 0 0.266667 0 0 0 0 0.235294 0 0 0 0 0.301961 0 0 0 0.12 0"/>
<feBlend mode="normal" in2="effect1_dropShadow_0_1" result="effect2_dropShadow_0_1"/>
<feBlend mode="normal" in="SourceGraphic" in2="effect2_dropShadow_0_1" result="shape"/>
</filter>
</defs>
</svg>
