<svg width="22" height="22" viewBox="0 0 22 22" fill="none" xmlns="http://www.w3.org/2000/svg">
<rect width="22" height="22" fill="#333333"/>
<g filter="url(#filter0_dd_0_1)">
<rect x="-13" y="-45" width="174" height="80" rx="16" fill="white"/>
<path d="M21 9V14C21 19 19 21 14 21H8C3 21 1 19 1 14V8C1 3 3 1 8 1H13" stroke="#443C4D" stroke-width="1.5" stroke-linecap="round" stroke-linejoin="round"/>
<path d="M21 9H17C14 9 13 8 13 5V1L21 9Z" stroke="#443C4D" stroke-width="1.5" stroke-linecap="round" stroke-linejoin="round"/>
<path d="M6 12H12" stroke="#443C4D" stroke-width="1.5" stroke-linecap="round" stroke-linejoin="round"/>
<path d="M6 16H10" stroke="#443C4D" stroke-width="1.5" stroke-linecap="round" stroke-linejoin="round"/>
<rect x="-12.5" y="-44.5" width="173" height="79" rx="15.5" stroke="#EEEDEF"/>
</g>
<defs>
<filter id="filter0_dd_0_1" x="-15" y="-45" width="178" height="86" filterUnits="userSpaceOnUse" color-interpolation-filters="sRGB">
<feFlood flood-opacity="0" result="BackgroundImageFix"/>
<feColorMatrix in="SourceAlpha" type="matrix" values="0 0 0 0 0 0 0 0 0 0 0 0 0 0 0 0 0 0 127 0" result="hardAlpha"/>
<feMorphology radius="2" operator="erode" in="SourceAlpha" result="effect1_dropShadow_0_1"/>
<feOffset dy="4"/>
<feGaussianBlur stdDeviation="2"/>
<feColorMatrix type="matrix" values="0 0 0 0 0.266667 0 0 0 0 0.235294 0 0 0 0 0.301961 0 0 0 0.08 0"/>
<feBlend mode="normal" in2="BackgroundImageFix" result="effect1_dropShadow_0_1"/>
<feColorMatrix in="SourceAlpha" type="matrix" values="0 0 0 0 0 0 0 0 0 0 0 0 0 0 0 0 0 0 127 0" result="hardAlpha"/>
<feMorphology radius="2" operator="erode" in="SourceAlpha" result="effect2_dropShadow_0_1"/>
<feOffset dy="2"/>
<feGaussianBlur stdDeviation="2"/>
<feColorMatrix type="matrix" values="0 0 0 0 0.266667 0 0 0 0 0.235294 0 0 0 0 0.301961 0 0 0 0.12 0"/>
<feBlend mode="normal" in2="effect1_dropShadow_0_1" result="effect2_dropShadow_0_1"/>
<feBlend mode="normal" in="SourceGraphic" in2="effect2_dropShadow_0_1" result="shape"/>
</filter>
</defs>
</svg>
