<svg width="32" height="32" viewBox="0 0 32 32" fill="none" xmlns="http://www.w3.org/2000/svg">
<rect width="32" height="32" fill="#333333"/>
<rect width="1440" height="1400" transform="translate(-1312 -688)" fill="#FAF9FA"/>
<rect x="-1312" y="-688" width="1440" height="1024" fill="#FAF9FA"/>
<rect x="-983" y="-688" width="1111" height="1400" fill="white"/>
<circle cx="16" cy="16" r="16" fill="#72687B"/>
<path d="M19.7668 10.7084L17.1834 8.70837C16.8501 8.37504 16.1001 8.20837 15.6001 8.20837H12.4334C11.4334 8.20837 10.3501 8.95837 10.1001 9.95837L8.1001 16.0417C7.68344 17.2084 8.43344 18.2084 9.68344 18.2084H13.0168C13.5168 18.2084 13.9334 18.625 13.8501 19.2084L13.4334 21.875C13.2668 22.625 13.7668 23.4584 14.5168 23.7084C15.1834 23.9584 16.0168 23.625 16.3501 23.125L19.7668 18.0417" stroke="white" stroke-width="1.5" stroke-miterlimit="10"/>
<path d="M24.0163 10.7083V18.875C24.0163 20.0417 23.5163 20.4583 22.3496 20.4583H21.5163C20.3496 20.4583 19.8496 20.0417 19.8496 18.875V10.7083C19.8496 9.54167 20.3496 9.125 21.5163 9.125H22.3496C23.5163 9.125 24.0163 9.54167 24.0163 10.7083Z" stroke="white" stroke-width="1.5" stroke-linecap="round" stroke-linejoin="round"/>
</svg>
