<svg width="32" height="32" viewBox="0 0 32 32" fill="none" xmlns="http://www.w3.org/2000/svg">
<rect width="32" height="32" fill="#333333"/>
<rect width="1440" height="1400" transform="translate(-1220 -688)" fill="#FAF9FA"/>
<rect x="-1220" y="-688" width="1440" height="1024" fill="#FAF9FA"/>
<rect x="-891" y="-688" width="1111" height="1400" fill="white"/>
<circle cx="16" cy="16" r="16" fill="#72687B"/>
<path d="M12.2334 21.2917L14.8167 23.2917C15.1501 23.625 15.9001 23.7917 16.4001 23.7917H19.5667C20.5667 23.7917 21.6501 23.0417 21.9001 22.0417L23.9001 15.9583C24.3167 14.7917 23.5667 13.7917 22.3167 13.7917H18.9834C18.4834 13.7917 18.0667 13.375 18.1501 12.7917L18.5667 10.125C18.7334 9.37501 18.2334 8.54168 17.4834 8.29168C16.8167 8.04168 15.9834 8.37501 15.6501 8.87501L12.2334 13.9583" stroke="white" stroke-width="1.5" stroke-miterlimit="10"/>
<path d="M7.9834 21.2916V13.125C7.9834 11.9583 8.4834 11.5416 9.65007 11.5416H10.4834C11.6501 11.5416 12.1501 11.9583 12.1501 13.125V21.2916C12.1501 22.4583 11.6501 22.875 10.4834 22.875H9.65007C8.4834 22.875 7.9834 22.4583 7.9834 21.2916Z" stroke="white" stroke-width="1.5" stroke-linecap="round" stroke-linejoin="round"/>
</svg>
