<svg width="20" height="22" fill="none" xmlns="http://www.w3.org/2000/svg">
    <path fill="#333" d="M0 0h20v22H0z" />
    <g clip-path="url(#a)">
        <path fill="#fff" d="M-387-105h1440v1418H-387z" />
        <path fill="#FAF9FA" d="M-387-105h1440v1421H-387z" />
        <path fill="#fff" d="M-58-105h1111v1418H-58z" />
        <path fill="#fff" d="M-58-105h1111V63H-58z" />
        <rect x="-17.5" y="-8.5" width="251" height="39" rx="19.5" fill="#fff" />
        <path
            d="M4.73 18.7c.82-.88 2.07-.81 2.79.15l1.01 1.35c.81 1.07 2.12 1.07 2.93 0l1.01-1.35c.72-.96 1.97-1.03 2.79-.15 1.78 1.9 3.23 1.27 3.23-1.39V6.04C18.5 2.01 17.56 1 13.78 1H6.22C2.44 1 1.5 2.01 1.5 6.04V17.3c0 2.67 1.46 3.29 3.23 1.4ZM6 6h8M7 10h6"
            stroke="#443C4D" stroke-width="1.5" stroke-linecap="round" stroke-linejoin="round" />
        <rect x="-17.5" y="-8.5" width="251" height="39" rx="19.5" stroke="#E2E0E4" />
    </g>
    <defs>
        <clipPath id="a">
            <path fill="#fff" transform="translate(-387 -105)" d="M0 0h1440v1418H0z" />
        </clipPath>
    </defs>
</svg>
