<svg width="20" height="20" viewBox="0 0 20 20" fill="none" xmlns="http://www.w3.org/2000/svg">
<path d="M13.7668 4.70837L11.1834 2.70837C10.8501 2.37504 10.1001 2.20837 9.6001 2.20837H6.43344C5.43344 2.20837 4.3501 2.95837 4.1001 3.95837L2.1001 10.0417C1.68344 11.2084 2.43344 12.2084 3.68344 12.2084H7.01677C7.51677 12.2084 7.93344 12.625 7.8501 13.2084L7.43344 15.875C7.26677 16.625 7.76677 17.4584 8.51677 17.7084C9.18344 17.9584 10.0168 17.625 10.3501 17.125L13.7668 12.0417" stroke="#8E8695" stroke-width="1.5" stroke-miterlimit="10"/>
<path d="M18.0163 4.70833V12.875C18.0163 14.0417 17.5163 14.4583 16.3496 14.4583H15.5163C14.3496 14.4583 13.8496 14.0417 13.8496 12.875V4.70833C13.8496 3.54167 14.3496 3.125 15.5163 3.125H16.3496C17.5163 3.125 18.0163 3.54167 18.0163 4.70833Z" stroke="#8E8695" stroke-width="1.5" stroke-linecap="round" stroke-linejoin="round"/>
</svg>
