<svg width="343" height="158" viewBox="0 0 343 158" fill="none" xmlns="http://www.w3.org/2000/svg">
<path d="M182.427 86.0547H187.129V81.4029H182.427V86.0547Z" fill="#313030"/>
<path d="M191.826 86.0547H196.527V81.4029H191.826V86.0547Z" fill="#313030"/>
<path d="M163.619 86.0547H168.32V81.4029H163.619V86.0547Z" fill="#313030"/>
<path d="M144.814 86.0547H149.516V81.4029H144.814V86.0547Z" fill="#313030"/>
<path d="M154.213 86.0547H158.914V81.4029H154.213V86.0547Z" fill="#313030"/>
<path d="M148.262 109.313C156.471 109.313 163.15 115.922 163.15 124.044V124.219C163.15 128.577 161.114 132.658 157.564 135.416C153.783 138.353 151.867 141.413 151.867 144.51C151.867 151.948 157.983 158 165.501 158H184.306C191.824 158 197.94 151.948 197.94 144.51C197.94 141.413 196.024 138.353 192.243 135.416C188.693 132.658 186.657 128.577 186.657 124.219V124.044C186.657 115.921 193.336 109.313 201.545 109.313C210.618 109.313 218 102.01 218 93.0326V72.7206H215.179L215.179 0H210.478L210.478 72.7206H202.642L202.642 0H197.94L197.94 72.7206H190.104V30.8594H185.403V72.7206H177.567L177.567 0H172.866L172.866 72.7206H165.03V46.2891H160.328V72.7206L152.492 72.7206V0H147.791V72.7206H139.955V17.4265H135.254V72.7206H131.806V93.0326C131.807 102.01 139.189 109.313 148.262 109.313ZM136.509 77.372L213.299 77.372V93.0326C213.299 99.4448 208.026 104.662 201.545 104.662C190.744 104.662 181.956 113.357 181.956 124.044V124.219C181.956 130.014 184.647 135.428 189.34 139.075C191.855 141.028 193.239 142.958 193.239 144.51C193.239 149.384 189.232 153.349 184.307 153.349H165.501C160.576 153.349 156.568 149.384 156.568 144.51C156.568 142.958 157.953 141.028 160.467 139.075C165.16 135.428 167.852 130.014 167.852 124.219V124.044C167.852 113.357 159.064 104.662 148.262 104.662C141.782 104.662 136.509 99.4448 136.509 93.0326L136.509 77.372Z" fill="#313030"/>
<path d="M166.799 28.8226C166.211 28.4474 165.786 28.1765 165.553 27.3616C165.321 26.5467 165.541 26.0961 165.844 25.4723C166.2 24.7417 166.643 23.8323 166.256 22.4736C165.869 21.1151 165.011 20.5681 164.323 20.1288C163.735 19.7537 163.31 19.4829 163.078 18.668C162.846 17.8531 163.065 17.4027 163.369 16.779C163.724 16.0484 164.167 15.139 163.78 13.7804C163.393 12.4218 162.536 11.875 161.847 11.4357C161.259 11.0605 160.834 10.7898 160.602 9.97498C160.37 9.16021 160.589 8.7098 160.893 8.0861C161.249 7.35539 161.692 6.44612 161.305 5.08765L158.879 5.7638C159.111 6.57857 158.892 7.02898 158.588 7.65267C158.233 8.38327 157.79 9.29254 158.177 10.651C158.564 12.0095 159.421 12.5563 160.11 12.9958C160.698 13.3709 161.123 13.6417 161.355 14.4566C161.587 15.2715 161.367 15.7219 161.064 16.3456C160.708 17.0762 160.265 17.9856 160.652 19.3441C161.039 20.7026 161.897 21.2496 162.586 21.6889C163.174 22.064 163.598 22.3348 163.83 23.1497C164.063 23.9647 163.843 24.4153 163.539 25.0391C163.184 25.7698 162.741 26.6792 163.128 28.0378C163.515 29.3964 164.373 29.9433 165.061 30.3828C165.649 30.758 166.074 31.0289 166.306 31.8438L168.732 31.1677C168.345 29.8091 167.487 29.2621 166.799 28.8226Z" fill="#313030"/>
<path d="M126.468 55.1401C126.833 55.7308 127.097 56.1574 126.949 56.9913C126.8 57.8251 126.405 58.1369 125.857 58.5683C125.216 59.0737 124.418 59.7028 124.17 61.0931C123.923 62.4832 124.455 63.3444 124.883 64.0361C125.248 64.6267 125.512 65.0532 125.363 65.8871C125.215 66.7209 124.819 67.0324 124.272 67.4638C123.631 67.9692 122.833 68.5982 122.585 69.9884C122.337 71.3786 122.87 72.2397 123.298 72.9314C123.663 73.522 123.927 73.9485 123.778 74.7822C123.63 75.616 123.234 75.9274 122.687 76.3589C122.046 76.8644 121.248 77.4932 121 78.8833L123.482 79.3163C123.63 78.4825 124.026 78.1711 124.573 77.7396C125.214 77.2342 126.012 76.6054 126.26 75.2153C126.508 73.8253 125.975 72.9641 125.547 72.2723C125.182 71.6817 124.918 71.2552 125.067 70.4213C125.216 69.5875 125.611 69.276 126.158 68.8446C126.799 68.3392 127.597 67.7102 127.845 66.32C128.093 64.93 127.56 64.0687 127.133 63.377C126.768 62.7864 126.504 62.3599 126.652 61.5261C126.801 60.6921 127.196 60.3805 127.744 59.949C128.385 59.4435 129.183 58.8144 129.431 57.4243C129.678 56.0341 129.146 55.1728 128.718 54.481C128.353 53.8903 128.089 53.4636 128.238 52.6298L125.756 52.1968C125.508 53.587 126.041 54.4483 126.468 55.1401Z" fill="#313030"/>
<path d="M2.74534 90.3028C1.23765 90.3028 0 89.1009 0 87.6368C0 86.1726 1.23765 84.9707 2.74534 84.9707C4.25303 84.9707 5.49069 86.1726 5.49069 87.6368C5.49069 89.1009 4.25303 90.3028 2.74534 90.3028ZM2.74534 85.5389C1.55269 85.5389 0.56257 86.4786 0.56257 87.6586C0.56257 88.8387 1.53019 89.7783 2.74534 89.7783C3.96049 89.7783 4.92812 88.8387 4.92812 87.6586C4.92812 86.4786 3.93799 85.5389 2.74534 85.5389Z" fill="black"/>
<path d="M66.5891 83.9962C65.0814 83.9962 63.8438 82.7943 63.8438 81.3301C63.8438 79.866 65.0814 78.6641 66.5891 78.6641C68.0968 78.6641 69.3344 79.866 69.3344 81.3301C69.3119 82.7943 68.0968 83.9962 66.5891 83.9962ZM66.5891 79.2104C65.3964 79.2104 64.4063 80.1501 64.4063 81.3301C64.4063 82.5102 65.3739 83.4498 66.5891 83.4498C67.8042 83.4498 68.7719 82.5102 68.7719 81.3301C68.7719 80.1501 67.7817 79.2104 66.5891 79.2104Z" fill="black"/>
<path d="M31.3302 42.3469C27.8422 42.3469 24.9844 39.5716 24.9844 36.1625C24.9844 32.7535 27.8422 30 31.3302 30C34.8406 30 37.676 32.7753 37.676 36.1625C37.6985 39.5716 34.8406 42.3469 31.3302 42.3469ZM31.3302 30.743C28.2698 30.743 25.7495 33.1905 25.7495 36.1625C25.7495 39.1345 28.2473 41.582 31.3302 41.582C34.4131 41.582 36.9109 39.1564 36.9109 36.1625C36.9109 33.1687 34.4131 30.743 31.3302 30.743Z" fill="black"/>
<path d="M45.5249 68.3746H38.324C38.1214 68.3746 37.9414 68.1998 37.9414 68.0031V61.0102C37.9414 60.8135 38.1214 60.6387 38.324 60.6387H45.5249C45.7274 60.6387 45.9074 60.8135 45.9074 61.0102V68.0031C45.9299 68.2216 45.7499 68.3746 45.5249 68.3746ZM38.729 67.6316H45.1423V61.4035H38.729V67.6316Z" fill="black"/>
<path d="M85.5695 48.8168H82.7341C82.5316 48.8168 82.3516 48.642 82.3516 48.4453V45.6918C82.3516 45.4951 82.5316 45.3203 82.7341 45.3203H85.5695C85.772 45.3203 85.952 45.4951 85.952 45.6918V48.4453C85.9745 48.642 85.7945 48.8168 85.5695 48.8168ZM83.1392 48.0738H85.1869V46.0852H83.1392V48.0738Z" fill="black"/>
<path d="M284.863 83.9961C283.355 83.9961 282.117 82.7942 282.117 81.3301C282.117 79.866 283.355 78.6641 284.863 78.6641C286.37 78.6641 287.608 79.866 287.608 81.3301C287.585 82.8161 286.37 83.9961 284.863 83.9961ZM284.863 79.2322C283.67 79.2322 282.68 80.1719 282.68 81.352C282.68 82.532 283.647 83.4717 284.863 83.4717C286.078 83.4717 287.045 82.532 287.045 81.352C287.045 80.1719 286.055 79.2322 284.863 79.2322Z" fill="black"/>
<path d="M271.503 51.5509C269.995 51.5509 268.758 50.349 268.758 48.8848C268.758 47.4207 269.995 46.2188 271.503 46.2188C273.011 46.2188 274.248 47.4207 274.248 48.8848C274.248 50.3708 273.011 51.5509 271.503 51.5509ZM271.503 46.7869C270.31 46.7869 269.32 47.7266 269.32 48.9067C269.32 50.0867 270.288 51.0264 271.503 51.0264C272.718 51.0264 273.686 50.0867 273.686 48.9067C273.686 47.7266 272.696 46.7869 271.503 46.7869Z" fill="black"/>
<path d="M335.658 100.001C332.148 100.001 329.312 97.2255 329.312 93.8383C329.312 90.4292 332.17 87.6758 335.658 87.6758C339.169 87.6758 342.004 90.4511 342.004 93.8383C342.004 97.2473 339.146 100.001 335.658 100.001ZM335.658 88.4188C332.575 88.4188 330.078 90.8444 330.078 93.8383C330.078 96.8321 332.575 99.2578 335.658 99.2578C338.741 99.2578 341.239 96.8321 341.239 93.8383C341.239 90.8444 338.719 88.4188 335.658 88.4188Z" fill="black"/>
<path d="M307.283 71.982H300.082C299.879 71.982 299.699 71.8072 299.699 71.6105V64.6176C299.699 64.4209 299.879 64.2461 300.082 64.2461H307.283C307.485 64.2461 307.665 64.4209 307.665 64.6176V71.6105C307.665 71.8072 307.508 71.982 307.283 71.982ZM300.464 71.2172H306.878V64.9891H300.464V71.2172Z" fill="black"/>
<path d="M332.53 46.1137H329.695C329.493 46.1137 329.312 45.9388 329.312 45.7422V42.9887C329.312 42.792 329.493 42.6172 329.695 42.6172H332.53C332.733 42.6172 332.913 42.792 332.913 42.9887V45.7422C332.913 45.9388 332.755 46.1137 332.53 46.1137ZM330.1 45.3488H332.148V43.3602H330.1V45.3488Z" fill="black"/>
</svg>
