<svg width="24" height="24" viewBox="0 0 24 24" fill="none" xmlns="http://www.w3.org/2000/svg">
<rect width="24" height="24" fill="#333333"/>
<rect width="1440" height="1024" transform="translate(-905 -419)" fill="white"/>
<rect x="-905" y="-419" width="1440" height="1024" fill="#FAF9FA"/>
<rect x="-576" y="-419" width="1111" height="1024" fill="white"/>
<rect x="-11.5" y="-10.5" width="311" height="45" rx="7.5" fill="white" stroke="#D5D2D7"/>
<path d="M8.24922 22.6125V17.4375L4.38672 20.2875C5.47422 21.3 6.78672 22.0875 8.24922 22.6125ZM15.7492 22.6125C17.2117 22.0875 18.5242 21.3 19.6117 20.2875L15.7492 17.4V22.6125ZM1.38672 15.75C1.49922 16.125 1.64922 16.4625 1.83672 16.8375L3.29922 15.75H1.38672ZM20.6992 15.75L22.1617 16.8375C22.3117 16.5 22.4617 16.125 22.6117 15.75H20.6992Z" fill="#2A5F9E"/>
<path d="M8.81211 14.25H0.974609C1.08711 14.775 1.23711 15.2625 1.38711 15.75H3.29961L1.83711 16.8375C2.13711 17.475 2.47461 18.0375 2.88711 18.6L6.74961 15.75H8.24961V16.5L3.86211 19.725L4.38711 20.25L8.24961 17.4375V22.6125C8.73711 22.8 9.22461 22.9125 9.74961 23.025V14.25H8.81211ZM23.0246 14.25H14.2496V23.025C14.7746 22.9125 15.2621 22.7625 15.7496 22.6125V17.4375L19.6121 20.25C20.1371 19.7625 20.5871 19.2375 21.0371 18.675L17.0246 15.75H19.5746L21.8621 17.4375C21.9746 17.25 22.0871 17.025 22.1621 16.8375L20.6996 15.75H22.6121C22.7621 15.2625 22.9121 14.775 23.0246 14.25Z" fill="white"/>
<path d="M2.88672 18.6C3.18672 19.0125 3.48672 19.3875 3.82422 19.7625L8.24922 16.5375V15.7875H6.74922L2.88672 18.6ZM17.0617 15.75L21.0742 18.675C21.2242 18.4875 21.3367 18.3 21.4867 18.1125C21.5242 18.075 21.5242 18.0375 21.5617 18.0375C21.6742 17.85 21.8242 17.625 21.9367 17.4375L19.5742 15.75H17.0617Z" fill="#ED4C5C"/>
<path d="M15.7492 1.38745V6.56245L19.6117 3.71245C18.5242 2.69995 17.2117 1.91245 15.7492 1.38745ZM8.24922 1.38745C6.78672 1.91245 5.47422 2.69995 4.38672 3.71245L8.24922 6.59995V1.38745ZM22.6117 8.24995C22.4992 7.87495 22.3492 7.53745 22.1617 7.16245L20.6992 8.24995H22.6117ZM3.29922 8.24995L1.83672 7.16245C1.68672 7.53745 1.53672 7.87495 1.38672 8.24995H3.29922Z" fill="#2A5F9E"/>
<path d="M15.1871 9.74998H22.9871C22.8746 9.22498 22.7246 8.73748 22.5746 8.24998H20.6621L22.1246 7.16248C21.8246 6.52498 21.4871 5.96248 21.0746 5.39998L17.2496 8.24998H15.7496V7.49998L20.1371 4.27498L19.6121 3.74998L15.7496 6.56248V1.38748C15.2621 1.19998 14.7746 1.08748 14.2496 0.974976V9.74998H15.1871ZM0.974609 9.74998H9.74961V0.974976C9.22461 1.08748 8.73711 1.23748 8.24961 1.38748V6.56248L4.38711 3.74998C3.86211 4.23748 3.41211 4.76248 2.96211 5.32498L6.97461 8.24998H4.42461L2.13711 6.56248C2.02461 6.74998 1.91211 6.97498 1.83711 7.16248L3.29961 8.24998H1.38711C1.23711 8.73748 1.08711 9.22498 0.974609 9.74998Z" fill="white"/>
<path d="M21.1121 5.40005C20.8121 4.98755 20.5121 4.61255 20.1746 4.23755L15.7496 7.46255V8.21255H17.2496L21.1121 5.40005ZM6.93711 8.25005L2.96211 5.32505C2.81211 5.51255 2.69961 5.70005 2.54961 5.88755C2.51211 5.92505 2.51211 5.96255 2.47461 5.96255C2.36211 6.15005 2.21211 6.37505 2.09961 6.56255L4.38711 8.25005H6.93711Z" fill="#ED4C5C"/>
<path d="M23.025 9.75H14.25V0.975C13.5375 0.825 12.7875 0.75 12 0.75C11.2125 0.75 10.4625 0.825 9.75 0.975V9.75H0.975C0.825 10.4625 0.75 11.2125 0.75 12C0.75 12.7875 0.825 13.5375 0.975 14.25H9.75V23.025C10.4625 23.175 11.2125 23.25 12 23.25C12.7875 23.25 13.5375 23.175 14.25 23.025V14.25H23.025C23.175 13.5375 23.25 12.7875 23.25 12C23.25 11.2125 23.175 10.4625 23.025 9.75Z" fill="#ED4C5C"/>
</svg>
