<svg width="323" height="110" viewBox="0 0 323 110" fill="none" xmlns="http://www.w3.org/2000/svg">
<g clip-path="url(#clip0_1_2783)">
<path d="M169.999 105.417C195.312 105.417 215.833 84.8964 215.833 59.5833C215.833 34.2703 195.312 13.75 169.999 13.75C144.686 13.75 124.166 34.2703 124.166 59.5833C124.166 84.8964 144.686 105.417 169.999 105.417Z" stroke="#332C24" stroke-width="3"/>
</g>
<path d="M185 46L155 76" stroke="#332C24" stroke-width="3" stroke-linecap="round" stroke-linejoin="round"/>
<path d="M155 46L185 76" stroke="#332C24" stroke-width="3" stroke-linecap="round" stroke-linejoin="round"/>
<path d="M2.74534 86.3028C1.23765 86.3028 0 85.1009 0 83.6368C0 82.1726 1.23765 80.9707 2.74534 80.9707C4.25303 80.9707 5.49069 82.1726 5.49069 83.6368C5.49069 85.1009 4.25303 86.3028 2.74534 86.3028ZM2.74534 81.5389C1.55269 81.5389 0.56257 82.4786 0.56257 83.6586C0.56257 84.8387 1.53019 85.7783 2.74534 85.7783C3.96049 85.7783 4.92812 84.8387 4.92812 83.6586C4.92812 82.4786 3.93799 81.5389 2.74534 81.5389Z" fill="#313030"/>
<path d="M66.5891 79.9962C65.0814 79.9962 63.8438 78.7943 63.8438 77.3301C63.8438 75.866 65.0814 74.6641 66.5891 74.6641C68.0968 74.6641 69.3344 75.866 69.3344 77.3301C69.3119 78.7943 68.0968 79.9962 66.5891 79.9962ZM66.5891 75.2104C65.3964 75.2104 64.4063 76.1501 64.4063 77.3301C64.4063 78.5102 65.3739 79.4498 66.5891 79.4498C67.8042 79.4498 68.7719 78.5102 68.7719 77.3301C68.7719 76.1501 67.7817 75.2104 66.5891 75.2104Z" fill="#313030"/>
<path d="M31.3302 38.3469C27.8422 38.3469 24.9844 35.5716 24.9844 32.1625C24.9844 28.7535 27.8422 26 31.3302 26C34.8406 26 37.676 28.7753 37.676 32.1625C37.6985 35.5716 34.8406 38.3469 31.3302 38.3469ZM31.3302 26.743C28.2698 26.743 25.7495 29.1905 25.7495 32.1625C25.7495 35.1345 28.2473 37.582 31.3302 37.582C34.4131 37.582 36.9109 35.1564 36.9109 32.1625C36.9109 29.1687 34.4131 26.743 31.3302 26.743Z" fill="#313030"/>
<path d="M45.5249 64.3746H38.324C38.1214 64.3746 37.9414 64.1998 37.9414 64.0031V57.0102C37.9414 56.8135 38.1214 56.6387 38.324 56.6387H45.5249C45.7274 56.6387 45.9074 56.8135 45.9074 57.0102V64.0031C45.9299 64.2216 45.7499 64.3746 45.5249 64.3746ZM38.729 63.6316H45.1423V57.4035H38.729V63.6316Z" fill="#313030"/>
<path d="M85.5695 44.8168H82.7341C82.5316 44.8168 82.3516 44.642 82.3516 44.4453V41.6918C82.3516 41.4951 82.5316 41.3203 82.7341 41.3203H85.5695C85.772 41.3203 85.952 41.4951 85.952 41.6918V44.4453C85.9745 44.642 85.7945 44.8168 85.5695 44.8168ZM83.1392 44.0738H85.1869V42.0852H83.1392V44.0738Z" fill="#313030"/>
<path d="M264.863 78.9961C263.355 78.9961 262.117 77.7942 262.117 76.3301C262.117 74.866 263.355 73.6641 264.863 73.6641C266.37 73.6641 267.608 74.866 267.608 76.3301C267.585 77.8161 266.37 78.9961 264.863 78.9961ZM264.863 74.2322C263.67 74.2322 262.68 75.1719 262.68 76.352C262.68 77.532 263.647 78.4717 264.863 78.4717C266.078 78.4717 267.045 77.532 267.045 76.352C267.045 75.1719 266.055 74.2322 264.863 74.2322Z" fill="#313030"/>
<path d="M251.503 46.5509C249.995 46.5509 248.758 45.349 248.758 43.8848C248.758 42.4207 249.995 41.2188 251.503 41.2188C253.011 41.2188 254.248 42.4207 254.248 43.8848C254.248 45.3708 253.011 46.5509 251.503 46.5509ZM251.503 41.7869C250.31 41.7869 249.32 42.7266 249.32 43.9067C249.32 45.0867 250.288 46.0264 251.503 46.0264C252.718 46.0264 253.686 45.0867 253.686 43.9067C253.686 42.7266 252.696 41.7869 251.503 41.7869Z" fill="#313030"/>
<path d="M315.658 95.0008C312.148 95.0008 309.312 92.2255 309.312 88.8383C309.312 85.4292 312.17 82.6758 315.658 82.6758C319.169 82.6758 322.004 85.4511 322.004 88.8383C322.004 92.2473 319.146 95.0008 315.658 95.0008ZM315.658 83.4188C312.575 83.4188 310.078 85.8444 310.078 88.8383C310.078 91.8321 312.575 94.2578 315.658 94.2578C318.741 94.2578 321.239 91.8321 321.239 88.8383C321.239 85.8444 318.719 83.4188 315.658 83.4188Z" fill="#313030"/>
<path d="M287.283 66.982H280.082C279.879 66.982 279.699 66.8072 279.699 66.6105V59.6176C279.699 59.4209 279.879 59.2461 280.082 59.2461H287.283C287.485 59.2461 287.665 59.4209 287.665 59.6176V66.6105C287.665 66.8072 287.508 66.982 287.283 66.982ZM280.464 66.2172H286.878V59.9891H280.464V66.2172Z" fill="#313030"/>
<path d="M312.53 41.1137H309.695C309.493 41.1137 309.312 40.9388 309.312 40.7422V37.9887C309.312 37.792 309.493 37.6172 309.695 37.6172H312.53C312.733 37.6172 312.913 37.792 312.913 37.9887V40.7422C312.913 40.9388 312.755 41.1137 312.53 41.1137ZM310.1 40.3488H312.148V38.3602H310.1V40.3488Z" fill="#313030"/>
<defs>
<clipPath id="clip0_1_2783">
<rect width="110" height="110" fill="white" transform="translate(115)"/>
</clipPath>
</defs>
</svg>
