<svg width="28" height="28" viewBox="0 0 28 28" fill="none" xmlns="http://www.w3.org/2000/svg">
<path d="M19.5867 0.666504H8.41335C3.56002 0.666504 0.666687 3.55984 0.666687 8.41317V19.5732C0.666687 24.4398 3.56002 27.3332 8.41335 27.3332H19.5734C24.4267 27.3332 27.32 24.4398 27.32 19.5865V8.41317C27.3334 3.55984 24.44 0.666504 19.5867 0.666504ZM14 19.1732C11.1467 19.1732 8.82669 16.8532 8.82669 13.9998C8.82669 11.1465 11.1467 8.8265 14 8.8265C16.8534 8.8265 19.1734 11.1465 19.1734 13.9998C19.1734 16.8532 16.8534 19.1732 14 19.1732ZM21.8934 7.17317C21.8267 7.33317 21.7334 7.47984 21.6134 7.61317C21.48 7.73317 21.3334 7.8265 21.1734 7.89317C21.0134 7.95984 20.84 7.99984 20.6667 7.99984C20.3067 7.99984 19.9734 7.8665 19.72 7.61317C19.6 7.47984 19.5067 7.33317 19.44 7.17317C19.3734 7.01317 19.3334 6.83984 19.3334 6.6665C19.3334 6.49317 19.3734 6.31984 19.44 6.15984C19.5067 5.9865 19.6 5.85317 19.72 5.71984C20.0267 5.41317 20.4934 5.2665 20.92 5.35984C21.0134 5.37317 21.0934 5.39984 21.1734 5.43984C21.2534 5.4665 21.3334 5.5065 21.4134 5.55984C21.48 5.59984 21.5467 5.6665 21.6134 5.71984C21.7334 5.85317 21.8267 5.9865 21.8934 6.15984C21.96 6.31984 22 6.49317 22 6.6665C22 6.83984 21.96 7.01317 21.8934 7.17317Z" fill="#A49DAA"/>
</svg>
