<svg width="40" height="40" viewBox="0 0 40 40" fill="none" xmlns="http://www.w3.org/2000/svg">
<rect width="40" height="40" fill="#333333"/>
<rect width="1440" height="1024" transform="translate(-425 -418)" fill="white"/>
<rect x="-425" y="-418" width="1440" height="1024" fill="#FAF9FA"/>
<rect x="-96" y="-418" width="1111" height="1024" fill="white"/>
<path d="M-16 -4C-16 -10.6274 -10.6274 -16 -4 -16H512C518.627 -16 524 -10.6274 524 -4V44C524 50.6274 518.627 56 512 56H-4C-10.6274 56 -16 50.6274 -16 44V-4Z" fill="#FF8500" fill-opacity="0.05"/>
<circle cx="20" cy="20" r="20" fill="#FF8500" fill-opacity="0.1"/>
<path d="M20 24.9043C20.8252 24.9043 21.4942 24.2354 21.4942 23.4102C21.4942 22.585 20.8252 21.916 20 21.916C19.1748 21.916 18.5059 22.585 18.5059 23.4102C18.5059 24.2354 19.1748 24.9043 20 24.9043Z" fill="#72687B"/>
<path d="M25.7568 17.7355V16.5897C25.7568 14.1147 25.161 10.833 20.0002 10.833C14.8393 10.833 14.2435 14.1147 14.2435 16.5897V17.7355C11.6768 18.0563 10.8335 19.358 10.8335 22.5572V24.2622C10.8335 28.0205 11.9793 29.1663 15.7377 29.1663H24.2627C28.021 29.1663 29.1668 28.0205 29.1668 24.2622V22.5572C29.1668 19.358 28.3235 18.0563 25.7568 17.7355ZM20.0002 26.178C18.4693 26.178 17.2318 24.9313 17.2318 23.4097C17.2318 21.8788 18.4785 20.6413 20.0002 20.6413C21.5218 20.6413 22.7685 21.888 22.7685 23.4097C22.7685 24.9405 21.531 26.178 20.0002 26.178ZM15.7377 17.653C15.6643 17.653 15.6002 17.653 15.5268 17.653V16.5897C15.5268 13.9038 16.2877 12.1163 20.0002 12.1163C23.7127 12.1163 24.4735 13.9038 24.4735 16.5897V17.6622C24.4002 17.6622 24.336 17.6622 24.2627 17.6622H15.7377V17.653Z" fill="#72687B"/>
<path d="M-4 -15H512V-17H-4V-15ZM523 -4V44H525V-4H523ZM512 55H-4V57H512V55ZM-15 44V-4H-17V44H-15ZM-4 55C-10.0751 55 -15 50.0751 -15 44H-17C-17 51.1797 -11.1797 57 -4 57V55ZM523 44C523 50.0751 518.075 55 512 55V57C519.18 57 525 51.1797 525 44H523ZM512 -15C518.075 -15 523 -10.0751 523 -4H525C525 -11.1797 519.18 -17 512 -17V-15ZM-4 -17C-11.1797 -17 -17 -11.1797 -17 -4H-15C-15 -10.0751 -10.0751 -15 -4 -15V-17Z" fill="#FF8500" fill-opacity="0.15"/>
</svg>
