<svg width="24" height="29" viewBox="0 0 24 29" fill="none" xmlns="http://www.w3.org/2000/svg">
<path d="M6.81411 27.93L7.30496 24.7476L6.2117 24.7217H0.991211L4.61921 1.23819C4.63029 1.16729 4.66703 1.10118 4.72051 1.05425C4.774 1.00731 4.84262 0.981445 4.91394 0.981445H13.7165C16.6389 0.981445 18.6555 1.60223 19.7085 2.8275C20.2021 3.40232 20.5165 4.00297 20.6686 4.66399C20.828 5.3576 20.8309 6.18626 20.6751 7.19696L20.6637 7.27073V7.91832L21.1575 8.20382C21.5733 8.42893 21.9034 8.68664 22.1568 8.98171C22.5793 9.47316 22.8524 10.0978 22.9678 10.8383C23.0869 11.5999 23.0475 12.5062 22.8524 13.5322C22.6271 14.7125 22.263 15.7404 21.7713 16.5815C21.3188 17.3566 20.7426 17.9992 20.0586 18.4976C19.4054 18.9708 18.6293 19.3301 17.7519 19.5601C16.9015 19.7859 15.9322 19.9001 14.8689 19.9001H14.1838C13.6941 19.9001 13.2181 20.0802 12.8447 20.4031C12.4703 20.7327 12.2223 21.1827 12.1464 21.6752L12.0948 21.9618L11.2277 27.5706L11.1882 27.7766C11.178 27.842 11.1601 27.8745 11.1339 27.8966C11.1104 27.9165 11.0767 27.93 11.0437 27.93H6.81411Z" fill="#253B80"/>
<path d="M21.6271 7.34375C21.6009 7.51522 21.5709 7.69053 21.5372 7.87064C20.3761 13.9549 16.4048 16.0568 11.3323 16.0568H8.74976C8.12951 16.0568 7.60679 16.5166 7.51008 17.1412L6.18774 25.702L5.81332 28.1285C5.75038 28.5386 6.06023 28.9084 6.46545 28.9084H11.0462C11.5887 28.9084 12.0493 28.506 12.1346 27.96L12.1797 27.7223L13.0423 22.1352L13.0977 21.8288C13.182 21.2809 13.6436 20.8785 14.1861 20.8785H14.8712C19.3091 20.8785 22.7833 19.0391 23.7988 13.7164C24.2229 11.4928 24.0033 9.63625 22.8809 8.33048C22.5413 7.93674 22.1199 7.61006 21.6271 7.34375Z" fill="#179BD7"/>
<path d="M20.412 6.84918C20.2348 6.79648 20.0517 6.74857 19.8639 6.70547C19.6754 6.66333 19.4819 6.62597 19.2831 6.5934C18.5867 6.47843 17.8238 6.42383 17.0064 6.42383H10.107C9.93704 6.42383 9.77576 6.4631 9.63124 6.534C9.31301 6.69014 9.07664 6.99768 9.01937 7.37416L7.55142 16.8641L7.50928 17.141C7.60599 16.5164 8.12871 16.0565 8.74896 16.0565H11.3315C16.404 16.0565 20.3756 13.9537 21.5364 7.8704C21.571 7.6903 21.6001 7.51499 21.6263 7.34352C21.3327 7.18448 21.0145 7.04845 20.6719 6.93251C20.5876 6.90378 20.5004 6.87601 20.412 6.84918Z" fill="#222D65"/>
<path d="M9.02214 7.37565C9.07941 6.99914 9.31605 6.69163 9.63401 6.53643C9.77961 6.46553 9.94008 6.42626 10.1097 6.42626H17.0094C17.8269 6.42626 18.5897 6.48086 19.2859 6.59583C19.485 6.6284 19.6784 6.66576 19.867 6.7079C20.0547 6.75103 20.2376 6.79893 20.4151 6.8516C20.5032 6.87844 20.5904 6.90621 20.6758 6.934C21.0183 7.04991 21.3365 7.18691 21.6302 7.34498C21.9757 5.09655 21.6275 3.56567 20.4367 2.17943C19.1238 0.653353 16.7541 0 13.7221 0H4.91923C4.2998 0 3.77167 0.459818 3.67577 1.0854L0.00940784 24.8103C-0.0629901 25.2797 0.291706 25.7032 0.755269 25.7032H6.18998L7.55446 16.8656L9.02214 7.37565Z" fill="#253B80"/>
</svg>
