<svg width="18" height="18" viewBox="0 0 18 18" fill="none" xmlns="http://www.w3.org/2000/svg">
<path d="M12.0885 0.667537C11.84 0.418385 11.5366 0.230982 11.2025 0.120383C10.8685 0.00978304 10.5132 -0.02093 10.1651 0.0307104C9.81706 0.0823508 9.48597 0.214905 9.19843 0.417725C8.91089 0.620545 8.67493 0.887977 8.5095 1.19854L5.4795 6.88354L1.263 8.28904C1.14162 8.32935 1.03257 8.40004 0.946212 8.49438C0.859852 8.58872 0.799052 8.70358 0.769591 8.82804C0.74013 8.9525 0.742985 9.08242 0.777887 9.20547C0.812789 9.32851 0.878578 9.44058 0.969 9.53104L4.1895 12.75L0.219 16.7205L0 18L1.281 17.781L5.25 13.8105L8.469 17.031C8.55945 17.1215 8.67153 17.1872 8.79457 17.2221C8.91762 17.257 9.04754 17.2599 9.172 17.2304C9.29646 17.201 9.41132 17.1402 9.50566 17.0538C9.6 16.9675 9.67068 16.8584 9.711 16.737L11.1165 12.522L16.785 9.48604C17.094 9.32029 17.3599 9.08463 17.5616 8.79786C17.7633 8.5111 17.8953 8.18115 17.9468 7.83436C17.9984 7.48756 17.9683 7.13351 17.8587 6.80045C17.7492 6.46739 17.5633 6.16453 17.316 5.91604L12.09 0.666037L12.0885 0.667537ZM9.8325 1.90354C9.88761 1.79984 9.96629 1.71053 10.0622 1.6428C10.1582 1.57507 10.2687 1.53081 10.3848 1.51359C10.501 1.49637 10.6196 1.50667 10.731 1.54366C10.8425 1.58064 10.9437 1.64328 11.0265 1.72654L16.254 6.97354C16.3366 7.05637 16.3988 7.15738 16.4354 7.26851C16.472 7.37964 16.4821 7.4978 16.4649 7.61354C16.4477 7.72928 16.4037 7.83939 16.3363 7.93506C16.269 8.03074 16.1802 8.10932 16.077 8.16454L10.146 11.3385C9.97713 11.4292 9.84938 11.5811 9.789 11.763L8.673 15.1125L2.889 9.32854L6.237 8.21254C6.41944 8.15143 6.57141 8.02254 6.6615 7.85254L9.8325 1.90504V1.90354Z" fill="#443C4D"/>
</svg>
