<svg width="19" height="19" viewBox="0 0 19 19" fill="none" xmlns="http://www.w3.org/2000/svg">
    <path
        d="M12.9896 1.1404C12.7207 0.87152 12.3917 0.670396 12.0298 0.553597C11.6679 0.436798 11.2835 0.407669 10.9081 0.468608C10.5327 0.529548 10.1772 0.678812 9.87086 0.904101C9.5645 1.12939 9.31606 1.42425 9.14601 1.7644L7.07001 5.9152C6.87281 6.30898 6.53809 6.6168 6.12921 6.7804L1.82121 8.5036C1.63681 8.57741 1.47361 8.69584 1.34625 8.84827C1.2189 9.00069 1.13137 9.18235 1.09153 9.37694C1.05168 9.57153 1.06076 9.77297 1.11795 9.96318C1.17514 10.1534 1.27866 10.3264 1.41921 10.4668L4.55121 13.6L0.599609 17.5504V18.4H1.44801L5.39961 14.4472L8.53161 17.5792C8.67196 17.7197 8.84501 17.8233 9.03522 17.8805C9.22544 17.9376 9.42688 17.9467 9.62147 17.9069C9.81606 17.867 9.99771 17.7795 10.1501 17.6522C10.3026 17.5248 10.421 17.3616 10.4948 17.1772L12.218 12.8692C12.3819 12.4601 12.6902 12.1254 13.0844 11.9284L17.234 9.8524C17.5741 9.68235 17.869 9.43391 18.0943 9.12755C18.3196 8.82119 18.4689 8.46568 18.5298 8.09031C18.5907 7.71495 18.5616 7.33047 18.4448 6.96858C18.328 6.60668 18.1269 6.27772 17.858 6.0088L12.9896 1.1404Z"
        fill="#FF8500" />
</svg>
