<svg width="48" height="48" viewBox="0 0 48 48" fill="none" xmlns="http://www.w3.org/2000/svg">
<rect width="48" height="48" fill="#333333"/>
<rect width="1440" height="1024" transform="translate(-631 -377)" fill="white"/>
<rect x="-631" y="-377" width="1440" height="1024" fill="#FAF9FA"/>
<rect x="-302" y="-377" width="1111" height="1024" fill="white"/>
<rect x="-56" y="-297" width="620" height="696" rx="16" fill="#FF8500" fill-opacity="0.03"/>
<rect x="-55.5" y="-296.5" width="619" height="695" rx="15.5" stroke="#FF8500" stroke-opacity="0.25"/>
<g filter="url(#filter0_dd_0_1)">
<rect x="-16" y="-17" width="540" height="82" rx="12" fill="white"/>
<rect x="-15.5" y="-16.5" width="539" height="81" rx="11.5" stroke="#E2E0E4"/>
</g>
<circle cx="24" cy="24" r="24" fill="#590BA9" fill-opacity="0.05"/>
<path d="M33.6602 22.4395L32.6802 26.6195C31.8402 30.2295 30.1802 31.6895 27.0602 31.3895C26.5602 31.3495 26.0202 31.2595 25.4402 31.1195L23.7602 30.7195C19.5902 29.7295 18.3002 27.6695 19.2802 23.4895L20.2602 19.2995C20.4602 18.4495 20.7002 17.7095 21.0002 17.0995C22.1702 14.6795 24.1602 14.0295 27.5002 14.8195L29.1702 15.2095C33.3602 16.1895 34.6402 18.2595 33.6602 22.4395Z" stroke="#590BA9" stroke-width="1.5" stroke-linecap="round" stroke-linejoin="round"/>
<path d="M27.0599 31.3896C26.4399 31.8096 25.6599 32.1596 24.7099 32.4696L23.1299 32.9896C19.1599 34.2696 17.0699 33.1996 15.7799 29.2296L14.4999 25.2796C13.2199 21.3096 14.2799 19.2096 18.2499 17.9296L19.8299 17.4096C20.2399 17.2796 20.6299 17.1696 20.9999 17.0996C20.6999 17.7096 20.4599 18.4496 20.2599 19.2996L19.2799 23.4896C18.2999 27.6696 19.5899 29.7296 23.7599 30.7196L25.4399 31.1196C26.0199 31.2596 26.5599 31.3496 27.0599 31.3896Z" stroke="#590BA9" stroke-width="1.5" stroke-linecap="round" stroke-linejoin="round"/>
<path d="M24.6401 20.5303L29.4901 21.7603" stroke="#590BA9" stroke-width="1.5" stroke-linecap="round" stroke-linejoin="round"/>
<path d="M23.6602 24.4004L26.5602 25.1404" stroke="#590BA9" stroke-width="1.5" stroke-linecap="round" stroke-linejoin="round"/>
<defs>
<filter id="filter0_dd_0_1" x="-18" y="-17" width="544" height="88" filterUnits="userSpaceOnUse" color-interpolation-filters="sRGB">
<feFlood flood-opacity="0" result="BackgroundImageFix"/>
<feColorMatrix in="SourceAlpha" type="matrix" values="0 0 0 0 0 0 0 0 0 0 0 0 0 0 0 0 0 0 127 0" result="hardAlpha"/>
<feMorphology radius="2" operator="erode" in="SourceAlpha" result="effect1_dropShadow_0_1"/>
<feOffset dy="4"/>
<feGaussianBlur stdDeviation="2"/>
<feColorMatrix type="matrix" values="0 0 0 0 0.266667 0 0 0 0 0.235294 0 0 0 0 0.301961 0 0 0 0.08 0"/>
<feBlend mode="normal" in2="BackgroundImageFix" result="effect1_dropShadow_0_1"/>
<feColorMatrix in="SourceAlpha" type="matrix" values="0 0 0 0 0 0 0 0 0 0 0 0 0 0 0 0 0 0 127 0" result="hardAlpha"/>
<feMorphology radius="2" operator="erode" in="SourceAlpha" result="effect2_dropShadow_0_1"/>
<feOffset dy="2"/>
<feGaussianBlur stdDeviation="2"/>
<feColorMatrix type="matrix" values="0 0 0 0 0.266667 0 0 0 0 0.235294 0 0 0 0 0.301961 0 0 0 0.12 0"/>
<feBlend mode="normal" in2="effect1_dropShadow_0_1" result="effect2_dropShadow_0_1"/>
<feBlend mode="normal" in="SourceGraphic" in2="effect2_dropShadow_0_1" result="shape"/>
</filter>
</defs>
</svg>
