<svg width="21" height="21" viewBox="0 0 21 21" fill="none" xmlns="http://www.w3.org/2000/svg">
<path d="M19.56 9.24006L18.2 7.66006C17.94 7.36006 17.73 6.80006 17.73 6.40006V4.70006C17.73 3.64006 16.86 2.77006 15.8 2.77006H14.1C13.71 2.77006 13.14 2.56006 12.84 2.30006L11.26 0.940059C10.57 0.350059 9.44 0.350059 8.74 0.940059L7.17 2.31006C6.87 2.56006 6.3 2.77006 5.91 2.77006H4.18C3.12 2.77006 2.25 3.64006 2.25 4.70006V6.41006C2.25 6.80006 2.04 7.36006 1.79 7.66006L0.440005 9.25006C-0.139995 9.94006 -0.139995 11.0601 0.440005 11.7501L1.79 13.3401C2.04 13.6401 2.25 14.2001 2.25 14.5901V16.3001C2.25 17.3601 3.12 18.2301 4.18 18.2301H5.91C6.3 18.2301 6.87 18.4401 7.17 18.7001L8.75 20.0601C9.44 20.6501 10.57 20.6501 11.27 20.0601L12.85 18.7001C13.15 18.4401 13.71 18.2301 14.11 18.2301H15.81C16.87 18.2301 17.74 17.3601 17.74 16.3001V14.6001C17.74 14.2101 17.95 13.6401 18.21 13.3401L19.57 11.7601C20.15 11.0701 20.15 9.93006 19.56 9.24006ZM14.16 8.61006L9.33 13.4401C9.19 13.5801 9 13.6601 8.8 13.6601C8.60001 13.6601 8.41001 13.5801 8.27001 13.4401L5.85 11.0201C5.56 10.7301 5.56 10.2501 5.85 9.96006C6.14 9.67006 6.62 9.67006 6.91 9.96006L8.8 11.8501L13.1 7.55006C13.39 7.26006 13.87 7.26006 14.16 7.55006C14.45 7.84006 14.45 8.32006 14.16 8.61006Z" fill="#FF8500"/>
</svg>
