<svg width="18" height="14" viewBox="0 0 18 14" fill="none" xmlns="http://www.w3.org/2000/svg">
<path d="M6.27734 10.2211C6.41389 10.3626 6.4894 10.5521 6.4876 10.7487C6.4858 10.9454 6.40683 11.1334 6.26771 11.2724C6.12859 11.4114 5.94044 11.4902 5.74379 11.4918C5.54714 11.4934 5.35773 11.4177 5.21634 11.2811L0.21934 6.27806C0.0788896 6.13744 0 5.94681 0 5.74806C0 5.54931 0.0788896 5.35869 0.21934 5.21806L5.21734 0.22006C5.35873 0.0833732 5.54814 0.00768721 5.74479 0.00930268C5.94144 0.0109182 6.12959 0.0897063 6.26871 0.228697C6.40783 0.367689 6.4868 0.555762 6.4886 0.752409C6.4904 0.949057 6.41489 1.13854 6.27834 1.28006L2.55734 5.00006H10.3993C11.9943 5.00006 13.2093 5.24206 14.2883 5.76406L14.5343 5.89006C15.6315 6.47154 16.5289 7.36892 17.1103 8.46606C17.7203 9.60606 18.0003 10.8841 18.0003 12.6011C18.0003 12.8 17.9213 12.9907 17.7807 13.1314C17.64 13.272 17.4493 13.3511 17.2503 13.3511C17.0514 13.3511 16.8607 13.272 16.72 13.1314C16.5794 12.9907 16.5003 12.8 16.5003 12.6011C16.5003 11.1171 16.2723 10.0811 15.7873 9.17306C15.3458 8.33762 14.6628 7.65461 13.8273 7.21306C12.9893 6.76506 12.0413 6.53706 10.7333 6.50406L10.4003 6.50006H2.56234L6.27734 10.2211Z" fill="#8E8695"/>
</svg>
