<svg width="343" height="157" viewBox="0 0 343 157" fill="none" xmlns="http://www.w3.org/2000/svg">
<path d="M2.74534 103.303C1.23765 103.303 0 102.101 0 100.637C0 99.1726 1.23765 97.9707 2.74534 97.9707C4.25303 97.9707 5.49069 99.1726 5.49069 100.637C5.49069 102.101 4.25303 103.303 2.74534 103.303ZM2.74534 98.5389C1.55269 98.5389 0.56257 99.4786 0.56257 100.659C0.56257 101.839 1.53019 102.778 2.74534 102.778C3.96049 102.778 4.92812 101.839 4.92812 100.659C4.92812 99.4786 3.93799 98.5389 2.74534 98.5389Z" fill="#313030"/>
<path d="M66.5891 96.9962C65.0814 96.9962 63.8438 95.7943 63.8438 94.3301C63.8438 92.866 65.0814 91.6641 66.5891 91.6641C68.0968 91.6641 69.3344 92.866 69.3344 94.3301C69.3119 95.7943 68.0968 96.9962 66.5891 96.9962ZM66.5891 92.2104C65.3964 92.2104 64.4063 93.1501 64.4063 94.3301C64.4063 95.5102 65.3739 96.4498 66.5891 96.4498C67.8042 96.4498 68.7719 95.5102 68.7719 94.3301C68.7719 93.1501 67.7817 92.2104 66.5891 92.2104Z" fill="#313030"/>
<path d="M31.3302 55.3469C27.8422 55.3469 24.9844 52.5716 24.9844 49.1625C24.9844 45.7535 27.8422 43 31.3302 43C34.8406 43 37.676 45.7753 37.676 49.1625C37.6985 52.5716 34.8406 55.3469 31.3302 55.3469ZM31.3302 43.743C28.2698 43.743 25.7495 46.1905 25.7495 49.1625C25.7495 52.1345 28.2473 54.582 31.3302 54.582C34.4131 54.582 36.9109 52.1564 36.9109 49.1625C36.9109 46.1687 34.4131 43.743 31.3302 43.743Z" fill="#313030"/>
<path d="M45.5249 81.3746H38.324C38.1214 81.3746 37.9414 81.1998 37.9414 81.0031V74.0102C37.9414 73.8135 38.1214 73.6387 38.324 73.6387H45.5249C45.7274 73.6387 45.9074 73.8135 45.9074 74.0102V81.0031C45.9299 81.2216 45.7499 81.3746 45.5249 81.3746ZM38.729 80.6316H45.1423V74.4035H38.729V80.6316Z" fill="#313030"/>
<path d="M85.5695 61.8168H82.7341C82.5316 61.8168 82.3516 61.642 82.3516 61.4453V58.6918C82.3516 58.4951 82.5316 58.3203 82.7341 58.3203H85.5695C85.772 58.3203 85.952 58.4951 85.952 58.6918V61.4453C85.9745 61.642 85.7945 61.8168 85.5695 61.8168ZM83.1392 61.0738H85.1869V59.0852H83.1392V61.0738Z" fill="#313030"/>
<path d="M284.863 96.9961C283.355 96.9961 282.117 95.7942 282.117 94.3301C282.117 92.866 283.355 91.6641 284.863 91.6641C286.37 91.6641 287.608 92.866 287.608 94.3301C287.585 95.8161 286.37 96.9961 284.863 96.9961ZM284.863 92.2322C283.67 92.2322 282.68 93.1719 282.68 94.352C282.68 95.532 283.647 96.4717 284.863 96.4717C286.078 96.4717 287.045 95.532 287.045 94.352C287.045 93.1719 286.055 92.2322 284.863 92.2322Z" fill="#313030"/>
<path d="M271.503 64.5509C269.995 64.5509 268.758 63.349 268.758 61.8848C268.758 60.4207 269.995 59.2188 271.503 59.2188C273.011 59.2188 274.248 60.4207 274.248 61.8848C274.248 63.3708 273.011 64.5509 271.503 64.5509ZM271.503 59.7869C270.31 59.7869 269.32 60.7266 269.32 61.9067C269.32 63.0867 270.288 64.0264 271.503 64.0264C272.718 64.0264 273.686 63.0867 273.686 61.9067C273.686 60.7266 272.696 59.7869 271.503 59.7869Z" fill="#313030"/>
<path d="M335.658 113.001C332.148 113.001 329.312 110.225 329.312 106.838C329.312 103.429 332.17 100.676 335.658 100.676C339.169 100.676 342.004 103.451 342.004 106.838C342.004 110.247 339.146 113.001 335.658 113.001ZM335.658 101.419C332.575 101.419 330.078 103.844 330.078 106.838C330.078 109.832 332.575 112.258 335.658 112.258C338.741 112.258 341.239 109.832 341.239 106.838C341.239 103.844 338.719 101.419 335.658 101.419Z" fill="#313030"/>
<path d="M307.283 84.982H300.082C299.879 84.982 299.699 84.8072 299.699 84.6105V77.6176C299.699 77.4209 299.879 77.2461 300.082 77.2461H307.283C307.485 77.2461 307.665 77.4209 307.665 77.6176V84.6105C307.665 84.8072 307.508 84.982 307.283 84.982ZM300.464 84.2172H306.878V77.9891H300.464V84.2172Z" fill="#313030"/>
<path d="M332.53 59.1137H329.695C329.493 59.1137 329.312 58.9388 329.312 58.7422V55.9887C329.312 55.792 329.493 55.6172 329.695 55.6172H332.53C332.733 55.6172 332.913 55.792 332.913 55.9887V58.7422C332.913 58.9388 332.755 59.1137 332.53 59.1137ZM330.1 58.3488H332.148V56.3602H330.1V58.3488Z" fill="#313030"/>
<g clip-path="url(#clip0_105_526)">
<path d="M159.606 89.971C158.522 88.9079 158.522 87.2021 159.606 86.139L182.586 63.6169C183.67 62.5538 185.411 62.5538 186.496 63.6169C187.58 64.6799 187.58 66.3858 186.496 67.4489L163.516 89.971C162.432 91.034 160.691 91.034 159.606 89.971Z" fill="white"/>
<path d="M163.466 89.9463C162.381 91.0094 160.641 91.0094 159.556 89.9463L150.173 80.7743C149.088 79.7112 149.088 78.0054 150.173 76.9423C151.258 75.8793 152.998 75.8793 154.083 76.9423L163.466 86.1391C164.551 87.1774 164.551 88.8832 163.466 89.9463Z" fill="white"/>
</g>
<path d="M155.91 44.2188H151.17V59.6259H155.91V44.2188Z" fill="#313030"/>
<path d="M165.39 44.2188H160.65V59.6259H165.39V44.2188Z" fill="#313030"/>
<path d="M174.869 44.2188H170.129V59.6259H174.869V44.2188Z" fill="#313030"/>
<path d="M184.349 44.2188H179.609V59.6259H184.349V44.2188Z" fill="#313030"/>
<path d="M193.83 44.2188H189.09V59.6259H193.83V44.2188Z" fill="#313030"/>
<path d="M125.1 36.6694C118.566 36.6694 113.25 41.8532 113.25 48.2249C113.25 54.5966 118.566 59.7803 125.1 59.7803C131.634 59.7803 136.95 54.5966 136.95 48.2249C136.95 41.8529 131.634 36.6694 125.1 36.6694ZM117.99 48.2249C117.99 44.402 121.18 41.2917 125.1 41.2917C126.111 41.2917 127.074 41.5003 127.946 41.8731L118.586 51C118.204 50.1497 117.99 49.2116 117.99 48.2249ZM125.1 55.158C123.92 55.158 122.807 54.8747 121.827 54.3767L131.408 45.0334C131.919 45.9895 132.21 47.0744 132.21 48.2249C132.21 52.0478 129.02 55.158 125.1 55.158Z" fill="#313030"/>
<path d="M144.059 15.7153C137.525 15.7153 132.209 20.8991 132.209 27.2708C132.209 33.6425 137.525 38.8262 144.059 38.8262C150.593 38.8262 155.909 33.6425 155.909 27.2708C155.909 20.8991 150.593 15.7153 144.059 15.7153ZM136.949 27.2708C136.949 23.4479 140.139 20.3376 144.059 20.3376C145.07 20.3376 146.033 20.5461 146.905 20.919L137.545 30.0459C137.163 29.1956 136.949 28.2575 136.949 27.2708ZM144.059 34.2042C142.879 34.2042 141.766 33.9209 140.786 33.4229L150.367 24.0796C150.878 25.0357 151.169 26.1206 151.169 27.2711C151.169 31.0937 147.979 34.2042 144.059 34.2042Z" fill="#313030"/>
<path d="M172.5 9.24438C165.966 9.24438 160.65 14.4281 160.65 20.7998C160.65 27.1715 165.966 32.3553 172.5 32.3553C179.034 32.3553 184.35 27.1715 184.35 20.7998C184.35 14.4281 179.034 9.24438 172.5 9.24438ZM165.39 20.7998C165.39 16.9769 168.58 13.8667 172.5 13.8667C173.512 13.8667 174.474 14.0752 175.346 14.4481L165.987 23.5749C165.604 22.7246 165.39 21.7866 165.39 20.7998ZM172.5 27.7333C171.32 27.7333 170.208 27.4503 169.227 26.952L178.809 17.6086C179.319 18.5647 179.61 19.6496 179.61 20.8001C179.61 24.6227 176.421 27.7333 172.5 27.7333Z" fill="#313030"/>
<path d="M125.1 64.4026C118.566 64.4026 113.25 69.5863 113.25 75.958C113.25 82.3297 118.566 87.5135 125.1 87.5135C131.634 87.5135 136.95 82.33 136.95 75.958C136.95 69.586 131.634 64.4026 125.1 64.4026ZM117.99 75.958C117.99 72.1351 121.18 69.0249 125.1 69.0249C126.111 69.0249 127.074 69.2334 127.946 69.6063L118.586 78.7331C118.204 77.8825 117.99 76.9445 117.99 75.958ZM125.1 82.8912C123.92 82.8912 122.807 82.6078 121.827 82.1099L131.408 72.7665C131.919 73.7226 132.21 74.8075 132.21 75.958C132.21 79.7806 129.02 82.8912 125.1 82.8912Z" fill="#313030"/>
<path d="M219.899 36.6694C213.365 36.6694 208.049 41.8532 208.049 48.2249C208.049 54.5966 213.365 59.7803 219.899 59.7803C226.433 59.7803 231.749 54.5966 231.749 48.2249C231.749 41.8529 226.433 36.6694 219.899 36.6694ZM212.789 48.2249C212.789 44.402 215.978 41.2917 219.899 41.2917C220.91 41.2917 221.873 41.5003 222.744 41.8731L213.385 51C213.003 50.1497 212.789 49.2116 212.789 48.2249ZM219.899 55.158C218.719 55.158 217.606 54.8747 216.626 54.3767L226.207 45.0334C226.718 45.9895 227.008 47.0744 227.008 48.2249C227.008 52.0478 223.819 55.158 219.899 55.158Z" fill="#313030"/>
<path d="M200.94 15.7153C194.406 15.7153 189.09 20.8991 189.09 27.2708C189.09 33.6425 194.405 38.8262 200.94 38.8262C207.474 38.8262 212.79 33.6425 212.79 27.2708C212.79 20.8991 207.474 15.7153 200.94 15.7153ZM193.83 27.2708C193.83 23.4479 197.019 20.3376 200.939 20.3376C201.951 20.3376 202.913 20.5461 203.785 20.919L194.426 30.0459C194.043 29.1956 193.83 28.2575 193.83 27.2708ZM200.94 34.2042C199.76 34.2042 198.647 33.9209 197.667 33.4229L207.248 24.0796C207.759 25.0357 208.049 26.1206 208.049 27.2711C208.049 31.0937 204.86 34.2042 200.94 34.2042Z" fill="#313030"/>
<path d="M219.899 64.4026C213.365 64.4026 208.049 69.5863 208.049 75.958C208.049 82.3297 213.365 87.5135 219.899 87.5135C226.433 87.5135 231.749 82.33 231.749 75.958C231.749 69.586 226.433 64.4026 219.899 64.4026ZM212.789 75.958C212.789 72.1351 215.978 69.0249 219.899 69.0249C220.91 69.0249 221.873 69.2334 222.744 69.6063L213.385 78.7331C213.003 77.8825 212.789 76.9445 212.789 75.958ZM219.899 82.8912C218.719 82.8912 217.606 82.6078 216.626 82.1099L226.207 72.7665C226.718 73.7226 227.008 74.8075 227.008 75.958C227.008 79.7806 223.819 82.8912 219.899 82.8912Z" fill="#313030"/>
<path d="M232.451 126.857L190.038 114.833V103.726C195.778 99.8367 200.104 94.0951 202.096 87.3947C205.916 93.0305 212.468 96.7577 219.899 96.7577C231.661 96.7577 241.229 87.4269 241.229 75.958C241.229 70.8226 239.268 65.8894 235.779 62.0914C239.267 58.2936 241.229 53.3601 241.229 48.2248C241.229 37.5362 232.918 28.7046 222.267 27.5523C222.268 27.4581 222.269 27.3646 222.269 27.2711C222.269 15.8018 212.701 6.47134 200.939 6.47134C197.135 6.47134 193.487 7.4345 190.25 9.2768C186.318 3.49662 179.731 0 172.5 0C165.269 0 158.682 3.49662 154.75 9.27649C151.513 7.4345 147.864 6.47104 144.06 6.47104C132.299 6.47104 122.73 15.8018 122.73 27.2708C122.73 27.3643 122.731 27.4578 122.733 27.552C112.082 28.7043 103.771 37.5359 103.771 48.2244C103.771 53.3598 105.732 58.293 109.221 62.091C105.732 65.8888 103.771 70.8223 103.771 75.9576C103.771 87.4269 113.339 96.7574 125.101 96.7574C132.531 96.7574 139.084 93.0302 142.904 87.3944C144.896 94.0948 149.221 99.8361 154.962 103.726V114.832L112.522 126.865C106.153 128.751 101.875 134.379 101.875 140.869V157H106.615V140.869C106.615 136.429 109.543 132.578 113.873 131.296L159.703 118.302V106.374C160.881 106.899 162.091 107.348 163.325 107.723C163.336 107.726 163.347 107.729 163.358 107.733C163.553 107.792 163.75 107.849 163.946 107.904C164.013 107.922 164.079 107.942 164.145 107.96C164.307 108.005 164.47 108.047 164.633 108.089C164.735 108.115 164.837 108.141 164.94 108.167C165.079 108.201 165.217 108.234 165.356 108.266C165.485 108.296 165.614 108.325 165.743 108.353C165.864 108.379 165.984 108.405 166.105 108.43C166.253 108.461 166.402 108.49 166.551 108.519C166.658 108.539 166.765 108.56 166.872 108.579C167.035 108.608 167.199 108.636 167.363 108.663C167.46 108.679 167.557 108.695 167.654 108.71C167.828 108.737 168.003 108.762 168.178 108.786C168.267 108.798 168.357 108.811 168.446 108.822C168.628 108.846 168.811 108.867 168.995 108.887C169.079 108.896 169.164 108.906 169.248 108.915C169.435 108.934 169.622 108.951 169.81 108.967C169.892 108.974 169.975 108.982 170.057 108.988C170.248 109.003 170.439 109.014 170.63 109.026C170.71 109.031 170.79 109.037 170.87 109.041C171.07 109.051 171.271 109.058 171.472 109.064C171.543 109.067 171.614 109.07 171.686 109.072C171.957 109.079 172.229 109.083 172.502 109.083C172.775 109.083 173.046 109.079 173.318 109.072C173.39 109.07 173.461 109.067 173.532 109.064C173.733 109.058 173.934 109.051 174.134 109.041C174.213 109.037 174.293 109.031 174.373 109.026C174.565 109.015 174.756 109.003 174.947 108.988C175.029 108.982 175.111 108.974 175.194 108.967C175.381 108.951 175.569 108.934 175.756 108.915C175.84 108.907 175.925 108.896 176.009 108.887C176.192 108.867 176.375 108.846 176.558 108.822C176.647 108.811 176.736 108.798 176.826 108.786C177.001 108.762 177.176 108.737 177.35 108.71C177.447 108.695 177.544 108.679 177.641 108.663C177.805 108.636 177.968 108.608 178.131 108.579C178.239 108.559 178.346 108.539 178.453 108.519C178.602 108.49 178.751 108.461 178.899 108.43C179.02 108.405 179.14 108.38 179.26 108.353C179.39 108.325 179.519 108.296 179.647 108.266C179.786 108.234 179.925 108.201 180.063 108.167C180.166 108.141 180.268 108.115 180.37 108.089C180.534 108.047 180.696 108.005 180.859 107.96C180.925 107.942 180.991 107.922 181.057 107.904C181.254 107.849 181.45 107.792 181.646 107.733C181.657 107.729 181.668 107.726 181.679 107.723C182.912 107.348 184.122 106.899 185.301 106.374V118.302L231.103 131.288C235.46 132.578 238.388 136.429 238.388 140.87V157H243.128V140.869C243.125 134.379 238.846 128.751 232.451 126.857ZM180.306 103.296C180.257 103.311 180.209 103.325 180.16 103.34C179.807 103.446 179.451 103.545 179.091 103.637C179.052 103.646 179.014 103.657 178.975 103.668C178.596 103.763 178.213 103.848 177.827 103.926C177.743 103.943 177.658 103.958 177.573 103.975C177.269 104.034 176.964 104.087 176.656 104.135C176.553 104.151 176.45 104.169 176.347 104.183C175.969 104.238 175.59 104.286 175.208 104.325C175.14 104.331 175.073 104.336 175.006 104.342C174.677 104.373 174.347 104.397 174.015 104.415C173.906 104.422 173.798 104.427 173.689 104.432C173.294 104.449 172.899 104.461 172.5 104.461C172.102 104.461 171.706 104.449 171.312 104.432C171.203 104.427 171.094 104.422 170.986 104.415C170.653 104.397 170.323 104.372 169.995 104.342C169.927 104.335 169.86 104.331 169.793 104.325C169.41 104.286 169.031 104.238 168.654 104.183C168.55 104.168 168.448 104.151 168.344 104.135C168.037 104.087 167.731 104.034 167.427 103.975C167.343 103.959 167.257 103.944 167.173 103.926C166.788 103.848 166.405 103.762 166.026 103.668C165.987 103.658 165.948 103.647 165.909 103.637C165.55 103.545 165.193 103.446 164.84 103.34C164.792 103.325 164.743 103.311 164.695 103.296C154.121 100.053 146.43 90.4062 146.43 79.0394V75.958V55.6203V44.2188H141.69V55.6203V75.958C141.69 84.8781 134.248 92.1357 125.101 92.1357C115.953 92.1357 108.511 84.8781 108.511 75.958C108.511 71.3265 110.565 66.9041 114.147 63.8251L116.163 62.0914L114.147 60.3576C110.565 57.2786 108.511 52.8563 108.511 48.2248C108.511 39.3046 115.953 32.047 125.106 32.0476C125.158 32.0495 125.21 32.051 125.262 32.0513L127.985 32.0654L127.623 29.4332C127.521 28.6945 127.47 27.9669 127.47 27.2708C127.47 18.3506 134.913 11.093 144.06 11.093C147.714 11.093 151.185 12.2371 154.095 14.4014L156.372 16.0943L157.652 13.5971C160.489 8.06097 166.179 4.62199 172.5 4.62199C178.821 4.62199 184.51 8.06097 187.347 13.5971L188.628 16.0943L190.905 14.4014C193.815 12.2374 197.285 11.093 200.94 11.093C210.087 11.093 217.53 18.3506 217.53 27.2708C217.53 27.9669 217.478 28.6945 217.377 29.4332L217.015 32.0654L219.738 32.0513C219.79 32.051 219.842 32.0495 219.899 32.047C229.047 32.047 236.489 39.3046 236.489 48.2248C236.489 52.8563 234.435 57.2786 230.853 60.3576L228.836 62.0914L230.853 63.8251C234.435 66.9041 236.489 71.3265 236.489 75.958C236.489 84.8781 229.047 92.1357 219.899 92.1357C210.752 92.1357 203.309 84.8781 203.309 75.958V55.6203V44.2188H198.569V55.6203V75.958V79.0394C198.57 90.4062 190.879 100.053 180.306 103.296Z" fill="#313030"/>
<defs>
<clipPath id="clip0_105_526">
<rect width="37.9373" height="27.9363" fill="white" transform="translate(149.365 62.8257)"/>
</clipPath>
</defs>
</svg>
