<svg width="30" height="26" viewBox="0 0 30 26" fill="none" xmlns="http://www.w3.org/2000/svg">
<path d="M22.0833 0.958496H7.91665C3.66665 0.958496 0.833313 3.0835 0.833313 8.04183V17.9585C0.833313 22.9168 3.66665 25.0418 7.91665 25.0418H22.0833C26.3333 25.0418 29.1666 22.9168 29.1666 17.9585V8.04183C29.1666 3.0835 26.3333 0.958496 22.0833 0.958496ZM22.7491 9.586L18.315 13.1277C17.38 13.8785 16.19 14.2468 15 14.2468C13.81 14.2468 12.6058 13.8785 11.685 13.1277L7.25081 9.586C6.79748 9.21766 6.72665 8.53766 7.08081 8.08433C7.44915 7.631 8.11498 7.546 8.56831 7.91433L13.0025 11.456C14.0791 12.3202 15.9066 12.3202 16.9833 11.456L21.4175 7.91433C21.8708 7.546 22.5508 7.61683 22.905 8.08433C23.2733 8.53766 23.2025 9.21766 22.7491 9.586Z" fill="#A49DAA"/>
</svg>
