<svg width="24" height="24" viewBox="0 0 24 24" fill="none" xmlns="http://www.w3.org/2000/svg">
<path d="M21.5599 10.7401L20.1999 9.16006C19.9399 8.86006 19.7299 8.30006 19.7299 7.90006V6.20006C19.7299 5.14006 18.8599 4.27006 17.7999 4.27006H16.0999C15.7099 4.27006 15.1399 4.06006 14.8399 3.80006L13.2599 2.44006C12.5699 1.85006 11.4399 1.85006 10.7399 2.44006L9.16988 3.81006C8.86988 4.06006 8.29988 4.27006 7.90988 4.27006H6.17988C5.11988 4.27006 4.24988 5.14006 4.24988 6.20006V7.91006C4.24988 8.30006 4.03988 8.86006 3.78988 9.16006L2.43988 10.7501C1.85988 11.4401 1.85988 12.5601 2.43988 13.2501L3.78988 14.8401C4.03988 15.1401 4.24988 15.7001 4.24988 16.0901V17.8001C4.24988 18.8601 5.11988 19.7301 6.17988 19.7301H7.90988C8.29988 19.7301 8.86988 19.9401 9.16988 20.2001L10.7499 21.5601C11.4399 22.1501 12.5699 22.1501 13.2699 21.5601L14.8499 20.2001C15.1499 19.9401 15.7099 19.7301 16.1099 19.7301H17.8099C18.8699 19.7301 19.7399 18.8601 19.7399 17.8001V16.1001C19.7399 15.7101 19.9499 15.1401 20.2099 14.8401L21.5699 13.2601C22.1499 12.5701 22.1499 11.4301 21.5599 10.7401ZM16.1599 10.1101L11.3299 14.9401C11.1899 15.0801 10.9999 15.1601 10.7999 15.1601C10.5999 15.1601 10.4099 15.0801 10.2699 14.9401L7.84988 12.5201C7.55988 12.2301 7.55988 11.7501 7.84988 11.4601C8.13988 11.1701 8.61988 11.1701 8.90988 11.4601L10.7999 13.3501L15.0999 9.05006C15.3899 8.76006 15.8699 8.76006 16.1599 9.05006C16.4499 9.34006 16.4499 9.82006 16.1599 10.1101Z" fill="#FF8500"/>
</svg>
