<svg width="20" height="20" viewBox="0 0 20 20" fill="none" xmlns="http://www.w3.org/2000/svg">
<path d="M10.5495 2.09828L10.5245 2.15662L8.10781 7.76495H5.73281C5.16615 7.76495 4.62448 7.88162 4.13281 8.08995L5.59115 4.60662L5.62448 4.52328L5.68281 4.38995C5.69948 4.33995 5.71615 4.28995 5.74115 4.24828C6.83281 1.72328 8.06615 1.14828 10.5495 2.09828Z" stroke="#443C4D" stroke-width="1.5" stroke-linecap="round" stroke-linejoin="round"/>
<path d="M15.0408 7.93197C14.6658 7.8153 14.2658 7.7653 13.8658 7.7653H8.10742L10.5241 2.15697L10.5491 2.09863C10.6741 2.1403 10.7908 2.19863 10.9158 2.24863L12.7574 3.02363C13.7824 3.44863 14.4991 3.8903 14.9324 4.42363C15.0158 4.52363 15.0824 4.6153 15.1408 4.72363C15.2158 4.8403 15.2741 4.95697 15.3074 5.08197C15.3408 5.15697 15.3658 5.23197 15.3824 5.29863C15.6074 5.99863 15.4741 6.85697 15.0408 7.93197Z" stroke="#443C4D" stroke-width="1.5" stroke-linecap="round" stroke-linejoin="round"/>
<path d="M17.9341 11.8318V13.4568C17.9341 13.6235 17.9258 13.7901 17.9174 13.9568C17.7591 16.8651 16.1341 18.3318 13.0508 18.3318H6.55078C6.35078 18.3318 6.15078 18.3151 5.95911 18.2901C3.30911 18.1151 1.89245 16.6985 1.71745 14.0485C1.69245 13.8568 1.67578 13.6568 1.67578 13.4568V11.8318C1.67578 10.1568 2.69245 8.71514 4.14245 8.09014C4.64245 7.8818 5.17578 7.76514 5.74245 7.76514H13.8758C14.2841 7.76514 14.6841 7.82347 15.0508 7.9318C16.7091 8.44014 17.9341 9.99014 17.9341 11.8318Z" stroke="#443C4D" stroke-width="1.5" stroke-linecap="round" stroke-linejoin="round"/>
<path d="M5.59102 4.60693L4.13268 8.09027C2.68268 8.71527 1.66602 10.1569 1.66602 11.8319V9.39027C1.66602 7.0236 3.34935 5.0486 5.59102 4.60693Z" stroke="#443C4D" stroke-width="1.5" stroke-linecap="round" stroke-linejoin="round"/>
<path d="M17.9322 9.38988V11.8315C17.9322 9.99821 16.7155 8.43988 15.0488 7.93988C15.4822 6.85654 15.6072 6.00654 15.3988 5.29821C15.3822 5.22321 15.3572 5.14821 15.3238 5.08154C16.8738 5.88154 17.9322 7.52321 17.9322 9.38988Z" stroke="#443C4D" stroke-width="1.5" stroke-linecap="round" stroke-linejoin="round"/>
</svg>
