<svg width="15" height="18" viewBox="0 0 15 18" fill="none" xmlns="http://www.w3.org/2000/svg">
    <path
        d="M1.5 1.66675H8.83333C9.80579 1.66675 10.7384 2.05306 11.4261 2.74069C12.1137 3.42832 12.5 4.36095 12.5 5.33341C12.5 6.30587 12.1137 7.23851 11.4261 7.92614C10.7384 8.61377 9.80579 9.00008 8.83333 9.00008H1.5V1.66675Z"
        stroke="#8E8695" stroke-width="2" stroke-linecap="round" stroke-linejoin="round" />
    <path
        d="M1.5 9H9.75C10.7225 9 11.6551 9.38631 12.3427 10.0739C13.0304 10.7616 13.4167 11.6942 13.4167 12.6667C13.4167 13.6391 13.0304 14.5718 12.3427 15.2594C11.6551 15.947 10.7225 16.3333 9.75 16.3333H1.5V9Z"
        stroke="#8E8695" stroke-width="2" stroke-linecap="round" stroke-linejoin="round" />
</svg>
