<svg width="22" height="22" viewBox="0 0 22 22" fill="none" xmlns="http://www.w3.org/2000/svg">
    <path
        d="M5.5 3.66675H12.8333C13.8058 3.66675 14.7384 4.05306 15.4261 4.74069C16.1137 5.42832 16.5 6.36095 16.5 7.33341C16.5 8.30587 16.1137 9.23851 15.4261 9.92614C14.7384 10.6138 13.8058 11.0001 12.8333 11.0001H5.5V3.66675Z"
        stroke="#8E8695" stroke-width="2" stroke-linecap="round" stroke-linejoin="round" />
    <path
        d="M5.5 11H13.75C14.7225 11 15.6551 11.3863 16.3427 12.0739C17.0304 12.7616 17.4167 13.6942 17.4167 14.6667C17.4167 15.6391 17.0304 16.5718 16.3427 17.2594C15.6551 17.947 14.7225 18.3333 13.75 18.3333H5.5V11Z"
        stroke="#8E8695" stroke-width="2" stroke-linecap="round" stroke-linejoin="round" />
</svg>
