<svg width="22" height="22" viewBox="0 0 22 22" fill="none" xmlns="http://www.w3.org/2000/svg">
    <path
        d="M17.4167 2.75H4.58333C3.57081 2.75 2.75 3.57081 2.75 4.58333V17.4167C2.75 18.4292 3.57081 19.25 4.58333 19.25H17.4167C18.4292 19.25 19.25 18.4292 19.25 17.4167V4.58333C19.25 3.57081 18.4292 2.75 17.4167 2.75Z"
        stroke="#8E8695" stroke-width="2" stroke-linecap="round" stroke-linejoin="round" />
    <path
        d="M7.79102 9.1665C8.55041 9.1665 9.16602 8.55089 9.16602 7.7915C9.16602 7.03211 8.55041 6.4165 7.79102 6.4165C7.03162 6.4165 6.41602 7.03211 6.41602 7.7915C6.41602 8.55089 7.03162 9.1665 7.79102 9.1665Z"
        stroke="#8E8695" stroke-width="2" stroke-linecap="round" stroke-linejoin="round" />
    <path d="M19.2507 13.7498L14.6673 9.1665L4.58398 19.2498" stroke="#8E8695" stroke-width="2" stroke-linecap="round"
        stroke-linejoin="round" />
</svg>
