<svg width="22" height="22" viewBox="0 0 22 22" fill="none" xmlns="http://www.w3.org/2000/svg">
    <g clip-path="url(#clip0_2265_16261)">
        <path
            d="M9.16602 11.9167C9.55968 12.443 10.0619 12.8785 10.6387 13.1936C11.2154 13.5087 11.8532 13.6961 12.5088 13.743C13.1643 13.79 13.8223 13.6954 14.4381 13.4657C15.0539 13.236 15.613 12.8765 16.0777 12.4117L18.8277 9.66172C19.6626 8.79729 20.1245 7.63953 20.1141 6.43779C20.1037 5.23606 19.6216 4.0865 18.7719 3.23671C17.9221 2.38693 16.7725 1.9049 15.5708 1.89446C14.369 1.88402 13.2113 2.34599 12.3468 3.18088L10.7702 4.74838"
            stroke="#8E8695" stroke-width="2" stroke-linecap="round" stroke-linejoin="round" />
        <path
            d="M12.833 10.0831C12.4394 9.55685 11.9371 9.12138 11.3604 8.80627C10.7836 8.49116 10.1458 8.30378 9.49027 8.25683C8.83472 8.20988 8.17674 8.30446 7.56096 8.53417C6.94518 8.76387 6.38601 9.12332 5.92136 9.58813L3.17136 12.3381C2.33647 13.2026 1.8745 14.3603 1.88494 15.5621C1.89538 16.7638 2.37741 17.9133 3.22719 18.7631C4.07698 19.6129 5.22654 20.0949 6.42827 20.1054C7.63001 20.1158 8.78777 19.6539 9.65219 18.819L11.2197 17.2515"
            stroke="#8E8695" stroke-width="2" stroke-linecap="round" stroke-linejoin="round" />
    </g>
    <defs>
        <clipPath id="clip0_2265_16261">
            <rect width="22" height="22" fill="white" />
        </clipPath>
    </defs>
</svg>
